<?xml version="1.0" standalone="no"?>
<!DOCTYPE svg PUBLIC "-//W3C//DTD SVG 20010904//EN"
 "http://www.w3.org/TR/2001/REC-SVG-20010904/DTD/svg10.dtd">
<svg version="1.0" xmlns="http://www.w3.org/2000/svg"
 width="4533.000000pt" height="6796.000000pt" viewBox="0 0 4533.000000 6796.000000"
 preserveAspectRatio="xMidYMid meet">

<g transform="translate(0.000000,6796.000000) scale(0.100000,-0.100000)"
fill="#000000" stroke="none">
<path d="M22390 67945 c-212 -33 -411 -95 -600 -190 -115 -57 -19801 -12438
-19928 -12532 -94 -70 -274 -243 -352 -338 -189 -231 -320 -509 -386 -817 -21
-101 -27 -159 -31 -329 -3 -130 -1 -238 6 -295 65 -488 272 -905 613 -1229
277 -264 593 -422 988 -497 l125 -23 5165 -3 c3692 -2 5196 0 5275 8 393 39
773 197 1066 442 41 34 1639 1539 3550 3342 1911 1804 3503 3304 3539 3333
514 429 1249 559 1895 336 206 -72 472 -224 622 -356 34 -31 1614 -1519 3510
-3309 1897 -1789 3480 -3281 3518 -3316 39 -35 124 -100 190 -144 268 -181
573 -292 897 -327 131 -15 10304 -15 10433 -1 460 51 831 221 1144 524 183
178 289 324 402 551 200 403 262 846 179 1281 -91 469 -369 900 -769 1187 -67
49 -19510 12285 -19766 12440 -188 114 -392 193 -627 243 -106 22 -153 26
-343 29 -158 3 -247 0 -315 -10z"/>
<path d="M1439 49895 c-182 -29 -334 -77 -501 -160 -468 -232 -798 -664 -910
-1192 l-23 -108 -3 -5905 c-2 -4289 0 -5931 8 -6000 36 -309 156 -603 345
-845 129 -165 314 -327 490 -428 44 -25 3048 -1446 6675 -3157 3627 -1712
6643 -3137 6702 -3167 291 -151 564 -433 712 -736 91 -188 147 -391 166 -604
7 -80 10 -1064 8 -3103 -3 -2863 -4 -2989 -22 -3080 -10 -52 -31 -138 -46
-190 -15 -52 -1533 -4358 -3374 -9569 -1874 -5303 -3358 -9519 -3371 -9575
-69 -293 -57 -613 36 -899 40 -126 155 -352 236 -467 87 -122 272 -306 393
-392 200 -142 448 -246 693 -291 l122 -22 2230 0 c2413 0 2297 -3 2519 55 425
110 802 394 1025 772 27 46 1310 2463 2851 5371 1541 2909 2820 5319 2842
5355 231 379 610 649 1048 746 169 37 347 50 504 37 524 -45 966 -299 1254
-719 34 -50 1269 -2369 2892 -5432 1557 -2940 2860 -5388 2895 -5440 251 -376
657 -639 1116 -722 l124 -23 2235 0 c2127 0 2240 1 2345 18 493 83 911 362
1172 782 250 401 320 902 189 1349 -18 61 -1538 4372 -3378 9581 -2263 6404
-3355 9509 -3374 9590 l-29 120 0 3120 0 3120 23 102 c50 229 131 420 259 613
142 213 387 431 612 544 36 19 3020 1427 6631 3131 3611 1704 6603 3117 6650
3140 449 225 772 649 892 1170 l23 100 3 5925 c2 4409 0 5949 -8 6020 -34 279
-144 556 -315 792 -77 107 -247 277 -355 357 -233 171 -520 287 -800 321 -71
8 -1639 10 -6135 8 l-6040 -4 -95 -21 c-238 -53 -471 -154 -650 -281 -122 -86
-316 -280 -403 -402 -128 -180 -228 -411 -279 -643 l-23 -102 0 -2115 0 -2115
28 -119 c82 -343 231 -609 474 -848 208 -205 470 -354 751 -428 210 -56 64
-53 2557 -60 l2300 -6 94 -22 c536 -125 941 -442 1171 -917 88 -182 136 -350
160 -560 14 -126 14 -4592 0 -4723 -56 -521 -362 -999 -809 -1265 -58 -35
-3540 -1685 -4341 -2057 -282 -131 -492 -181 -760 -181 -796 0 -1469 561
-1640 1366 -31 147 -37 383 -15 610 23 241 32 585 23 868 -61 2016 -1039 3915
-2692 5230 -1090 867 -2421 1424 -3836 1606 -376 49 -502 55 -1020 56 -491 0
-569 -4 -900 -41 -802 -90 -1580 -300 -2318 -625 -187 -82 -585 -287 -767
-394 -1071 -628 -1980 -1521 -2597 -2551 -541 -902 -847 -1833 -955 -2904 -25
-247 -25 -971 0 -1208 21 -200 22 -434 2 -567 -104 -688 -612 -1247 -1278
-1405 -133 -31 -223 -41 -382 -41 -185 0 -339 25 -507 81 -84 28 -771 347
-2313 1075 -1207 569 -2229 1056 -2272 1081 -412 242 -700 659 -795 1148 l-22
111 -3 2290 c-3 1558 0 2328 7 2408 35 395 192 743 459 1020 241 250 528 410
876 489 l100 22 2300 6 2300 6 114 22 c761 146 1318 755 1391 1518 14 149 14
3912 0 4055 -42 424 -215 780 -520 1072 -233 223 -513 370 -836 439 l-109 23
-6060 2 c-5020 1 -6075 -1 -6146 -12z"/>
</g>
</svg>
